<svg width="1000" height="1000" viewBox="0 0 1000 1000" xmlns="http://www.w3.org/2000/svg"><defs/><path fill="#02aee7" transform="matrix(1.5549390993018395 0 0 1.5549390993018395 -29.639297293711238 46.987890521726534)" d="M 193.31818845083 375.88752549002 L 120.90818845083 334.08752549002 L 120.90818845083 250.42752549002 L 193.31818845083 208.61752549002 L 265.73818845083 250.42752549002 L 265.73818845083 334.04752549002 Z M 129.91818845083 328.88752549002 L 193.31818845083 365.48752549002 L 256.72818845083 328.88752549002 L 256.72818845083 255.62752549002 L 193.31818845083 219.01752549002 L 129.91818845083 255.62752549002 Z"/><path fill="#02aee7" transform="matrix(1.5549390993018395 0 0 1.5549390993018395 -29.639297293711238 46.987890521726534)" d="M 193.31818845083 297.43752549002 L 123.15818845083 256.92752549002 L 127.66818845083 249.12752549002 L 193.31818845083 287.03752549002 L 258.97818845083 249.12752549002 L 263.47818845083 256.92752549002 L 193.31818845083 297.43752549002 Z"/><path fill="#02aee7" transform="matrix(1.5549390993018395 0 0 1.5549390993018395 -29.639297293711238 46.987890521726534)" d="M 188.81818845083 292.23752549002 L 197.82818845083 292.23752549002 L 197.82818845083 370.64752549002 L 188.81818845083 370.64752549002 Z"/><path fill="#02aee7" transform="matrix(1.5549390993018395 0 0 1.5549390993018395 -29.639297293711238 46.987890521726534)" d="M 188.81818845083 213.81752549002 L 197.82818845083 213.81752549002 L 197.82818845083 249.62752549002 L 188.81818845083 249.62752549002 Z"/><path fill="#02aee7" transform="matrix(0.77746954965092 -1.3466167613330866 1.3466167613330866 0.77746954965092 -105.86241194148741 420.65530547495155)" d="M 71.69243540283 278.4396919805 L 80.70243540283 278.4396919805 L 80.70243540283 314.2496919805 L 71.69243540283 314.2496919805 Z"/><path fill="#02aee7" transform="matrix(1.3466167613330868 -0.7774695496509196 0.7774695496509196 1.3466167613330868 -139.63568917832336 142.13461400800608)" d="M 34.75216649048 327.625753048 L 70.56216649048 327.625753048 L 70.56216649048 336.635753048 L 34.75216649048 336.635753048 Z"/><path fill="#02aee7" transform="matrix(1.5549390993018395 0 0 1.5549390993018395 -29.639297293711238 46.987890521726534)" d="M 136.39818845083 253.02752549002 C 136.39818845083 258.76024119326 131.75090415407 263.40752549002 126.01818845083 263.40752549002 C 120.28547274759 263.40752549002 115.63818845083 258.76024119326 115.63818845083 253.02752549002 C 115.63818845083 247.29480978678 120.28547274759 242.64752549002 126.01818845083 242.64752549002 C 131.75090415407 242.64752549002 136.39818845083 247.29480978678 136.39818845083 253.02752549002 Z"/><path fill="#02aee7" transform="matrix(1.5549390993018395 0 0 1.5549390993018395 -29.639297293711238 46.987890521726534)" d="M 203.69818845083 213.92752549002 C 203.69818845083 219.66024119326 199.05090415407 224.30752549002 193.31818845083 224.30752549002 C 187.58547274759 224.30752549002 182.93818845083 219.66024119326 182.93818845083 213.92752549002 C 182.93818845083 208.19480978678 187.58547274759 203.54752549002 193.31818845083 203.54752549002 C 199.05090415407 203.54752549002 203.69818845083 208.19480978678 203.69818845083 213.92752549002 Z"/><path fill="#02aee7" transform="matrix(1.5549390993018395 0 0 1.5549390993018395 -29.639297293711238 46.987890521726534)" d="M 203.69818845083 368.74752549002 C 203.69818845083 374.48024119326 199.05090415407 379.12752549002 193.31818845083 379.12752549002 C 187.58547274759 379.12752549002 182.93818845083 374.48024119326 182.93818845083 368.74752549002 C 182.93818845083 363.01480978678 187.58547274759 358.36752549002 193.31818845083 358.36752549002 C 199.05090415407 358.36752549002 203.69818845083 363.01480978678 203.69818845083 368.74752549002 Z"/><path fill="#02aee7" transform="matrix(1.5549390993018395 0 0 1.5549390993018395 -29.639297293711238 46.987890521726534)" d="M 271.60818845083 253.02752549002 C 271.60818845083 258.76024119326 266.96090415407 263.40752549002 261.22818845083 263.40752549002 C 255.49547274759 263.40752549002 250.84818845083 258.76024119326 250.84818845083 253.02752549002 C 250.84818845083 247.29480978678 255.49547274759 242.64752549002 261.22818845083 242.64752549002 C 266.96090415407 242.64752549002 271.60818845083 247.29480978678 271.60818845083 253.02752549002 Z"/><path fill="#02aee7" transform="matrix(1.5549390993018395 0 0 1.5549390993018395 -29.639297293711238 46.987890521726534)" d="M 136.28818845083 331.33752549002 C 136.28818845083 337.07024119326 131.64090415407 341.71752549002 125.90818845083 341.71752549002 C 120.17547274759 341.71752549002 115.52818845083 337.07024119326 115.52818845083 331.33752549002 C 115.52818845083 325.60480978678 120.17547274759 320.95752549002 125.90818845083 320.95752549002 C 131.64090415407 320.95752549002 136.28818845083 325.60480978678 136.28818845083 331.33752549002 Z"/><path fill="#02aee7" transform="matrix(1.5549390993018395 0 0 1.5549390993018395 -29.639297293711238 46.987890521726534)" d="M 271.60818845083 331.44752549002 C 271.60818845083 337.18024119326 266.96090415407 341.82752549002 261.22818845083 341.82752549002 C 255.49547274759 341.82752549002 250.84818845083 337.18024119326 250.84818845083 331.44752549002 C 250.84818845083 325.71480978678 255.49547274759 321.06752549002 261.22818845083 321.06752549002 C 266.96090415407 321.06752549002 271.60818845083 325.71480978678 271.60818845083 331.44752549002 Z"/><path fill="#1f4985" transform="matrix(1.5549390993018395 0 0 1.5549390993018395 -29.639297293711238 46.987890521726534)" d="M 193.31818845083 340.03752549002 L 151.92818845083 316.13752549002 L 151.92818845083 268.33752549002 L 193.31818845083 244.43752549002 L 234.71818845083 268.33752549002 L 234.71818845083 316.13752549002 Z M 160.93818845083 310.93752549002 L 193.31818845083 329.63752549002 L 225.70818845083 310.93752549002 L 225.70818845083 273.53752549002 L 193.31818845083 254.88752549002 L 160.93818845083 273.58752549002 Z"/><path id="text" fill="#1f4985" transform="matrix(1.8934804130414702 0 0 1.8934804130414702 304.0338438486423 168.71528029156275)" d="M 124.0431323172 211.00760732482 L 111.8556323172 211.00760732482 L 111.8556323172 194.50760732482 L 69.0118823172 194.50760732482 L 69.0118823172 211.00760732482 L 56.8243823172 211.00760732482 L 56.8243823172 177.39823232482 C 56.8243823172 172.49198232482 57.6681323172 167.97635732482 59.3556323172 163.85135732482 C 61.0431323172 159.72635732482 63.3868823172 156.17948232482 66.3868823172 153.21073232482 C 69.3868823172 150.24198232482 72.9337573172 147.92948232482 77.0275073172 146.27323232482 C 81.1212573172 144.61698232482 85.5900073172 143.78885732482 90.4337573172 143.78885732482 L 117.9025073172 143.78885732482 C 118.7462573172 143.78885732482 119.5431323172 143.94510732482 120.2931323172 144.25760732482 C 121.0431323172 144.57010732482 121.6993823172 145.00760732482 122.2618823172 145.57010732482 C 122.8243823172 146.13260732482 123.2618823172 146.78885732482 123.5743823172 147.53885732482 C 123.8868823172 148.28885732482 124.0431323172 149.08573232482 124.0431323172 149.92948232482 L 124.0431323172 211.00760732482 Z M 69.0118823172 182.32010732482 L 111.8556323172 182.32010732482 L 111.8556323172 155.97635732482 L 90.4337573172 155.97635732482 C 90.0587573172 155.97635732482 89.2696948172 156.03104482482 88.0665698172 156.14041982482 C 86.8634448172 156.24979482482 85.4728198172 156.52323232482 83.8946948172 156.96073232482 C 82.3165698172 157.39823232482 80.6525073172 158.07010732482 78.9025073172 158.97635732482 C 77.1525073172 159.88260732482 75.5431323172 161.13260732482 74.0743823172 162.72635732482 C 72.6056323172 164.32010732482 71.3946948172 166.31229482482 70.4415698172 168.70291982482 C 69.4884448172 171.09354482482 69.0118823172 173.99198232482 69.0118823172 177.39823232482 L 69.0118823172 182.32010732482 Z M 159.1056323172 211.00760732482 L 153.6681323172 211.00760732482 C 151.9181323172 211.00760732482 150.0509448172 210.71073232482 148.0665698172 210.11698232482 C 146.0821948172 209.52323232482 144.2306323172 208.54666982482 142.5118823172 207.18729482482 C 140.7931323172 205.82791982482 139.3712573172 204.06229482482 138.2462573172 201.89041982482 C 137.1212573172 199.71854482482 136.5587573172 197.05448232482 136.5587573172 193.89823232482 L 136.5587573172 138.91385732482 L 148.7462573172 138.91385732482 L 148.7462573172 193.89823232482 C 148.7462573172 195.39823232482 149.2150073172 196.59354482482 150.1525073172 197.48416982482 C 151.0900073172 198.37479482482 152.2618823172 198.82010732482 153.6681323172 198.82010732482 L 159.1056323172 198.82010732482 L 159.1056323172 211.00760732482 Z M 221.4493823172 177.11698232482 C 221.4493823172 178.80448232482 221.1525073172 180.62479482482 220.5587573172 182.57791982482 C 219.9650073172 184.53104482482 219.0040698172 186.34354482482 217.6759448172 188.01541982482 C 216.3478198172 189.68729482482 214.6134448172 191.08573232482 212.4728198172 192.21073232482 C 210.3321948172 193.33573232482 207.7306323172 193.89823232482 204.6681323172 193.89823232482 L 182.6837573172 193.89823232482 L 182.6837573172 182.32010732482 L 204.6681323172 182.32010732482 C 206.3243823172 182.32010732482 207.6056323172 181.81229482482 208.5118823172 180.79666982482 C 209.4181323172 179.78104482482 209.8712573172 178.52323232482 209.8712573172 177.02323232482 C 209.8712573172 175.42948232482 209.3634448172 174.17948232482 208.3478198172 173.27323232482 C 207.3321948172 172.36698232482 206.1056323172 171.91385732482 204.6681323172 171.91385732482 L 182.6837573172 171.91385732482 C 181.0275073172 171.91385732482 179.7462573172 172.42166982482 178.8400073172 173.43729482482 C 177.9337573172 174.45291982482 177.4806323172 175.71073232482 177.4806323172 177.21073232482 L 177.4806323172 194.22635732482 C 177.4806323172 195.85135732482 177.9884448172 197.11698232482 179.0040698172 198.02323232482 C 180.0196948172 198.92948232482 181.2775073172 199.38260732482 182.7775073172 199.38260732482 L 204.6681323172 199.38260732482 L 204.6681323172 211.00760732482 L 182.6837573172 211.00760732482 C 180.9962573172 211.00760732482 179.1759448172 210.71073232482 177.2228198172 210.11698232482 C 175.2696948172 209.52323232482 173.4571948172 208.56229482482 171.7853198172 207.23416982482 C 170.1134448172 205.90604482482 168.7150073172 204.17166982482 167.5900073172 202.03104482482 C 166.4650073172 199.89041982482 165.9025073172 197.28885732482 165.9025073172 194.22635732482 L 165.9025073172 177.11698232482 C 165.9025073172 175.42948232482 166.1993823172 173.60916982482 166.7931323172 171.65604482482 C 167.3868823172 169.70291982482 168.3478198172 167.89041982482 169.6759448172 166.21854482482 C 171.0040698172 164.54666982482 172.7384448172 163.14823232482 174.8790698172 162.02323232482 C 177.0196948172 160.89823232482 179.6212573172 160.33573232482 182.6837573172 160.33573232482 L 204.6681323172 160.33573232482 C 206.3556323172 160.33573232482 208.1759448172 160.63260732482 210.1290698172 161.22635732482 C 212.0821948172 161.82010732482 213.8946948172 162.78104482482 215.5665698172 164.10916982482 C 217.2384448172 165.43729482482 218.6368823172 167.17166982482 219.7618823172 169.31229482482 C 220.8868823172 171.45291982482 221.4493823172 174.05448232482 221.4493823172 177.11698232482 Z M 285.5743823172 160.33573232482 L 263.6837573172 184.24198232482 L 288.3400073172 211.00760732482 L 271.5587573172 211.00760732482 L 255.3400073172 193.33573232482 L 239.1212573172 211.00760732482 L 222.2931323172 211.00760732482 L 246.9025073172 184.14823232482 L 225.1056323172 160.33573232482 L 241.7931323172 160.33573232482 L 255.2462573172 175.00760732482 L 268.7931323172 160.33573232482 L 285.5743823172 160.33573232482 Z"/></svg>