<svg width="1000" height="1000" viewBox="0 0 1000 1000" xmlns="http://www.w3.org/2000/svg"><defs/><path fill="#02aee7" transform="matrix(1.391403797787292 0 0 1.391403797787292 -20.904876839819252 36.83663487251877)" d="M 200.61910044633 417.42487490262 L 128.20910044633 375.62487490262 L 128.20910044633 291.96487490262 L 200.61910044633 250.15487490262 L 273.03910044633 291.96487490262 L 273.03910044633 375.58487490262 Z M 137.21910044633 370.42487490262 L 200.61910044633 407.02487490262 L 264.02910044633 370.42487490262 L 264.02910044633 297.16487490262 L 200.61910044633 260.55487490262 L 137.21910044633 297.16487490262 Z"/><path fill="#02aee7" transform="matrix(1.391403797787292 0 0 1.391403797787292 -20.904876839819252 36.83663487251877)" d="M 200.61910044633 338.97487490262 L 130.45910044633 298.46487490262 L 134.96910044633 290.66487490262 L 200.61910044633 328.57487490262 L 266.27910044633 290.66487490262 L 270.77910044633 298.46487490262 L 200.61910044633 338.97487490262 Z"/><path fill="#02aee7" transform="matrix(1.391403797787292 0 0 1.391403797787292 -20.904876839819252 36.83663487251877)" d="M 196.11910044633 333.77487490262 L 205.12910044633 333.77487490262 L 205.12910044633 412.18487490262 L 196.11910044633 412.18487490262 Z"/><path fill="#02aee7" transform="matrix(1.391403797787292 0 0 1.391403797787292 -20.904876839819252 36.83663487251877)" d="M 196.11910044633 255.35487490262 L 205.12910044633 255.35487490262 L 205.12910044633 291.16487490262 L 196.11910044633 291.16487490262 Z"/><path fill="#02aee7" transform="matrix(0.6957018988936461 -1.2049910358059408 1.2049910358059408 0.6957018988936461 -89.1114910073523 371.2048815187829)" d="M 39.37049160339 305.5311419457 L 48.38049160339 305.5311419457 L 48.38049160339 341.3411419457 L 39.37049160339 341.3411419457 Z"/><path fill="#02aee7" transform="matrix(1.2049910358059408 -0.6957018988936459 0.6957018988936459 1.2049910358059408 -119.33278149529227 121.97663325912316)" d="M 20.30626704307 367.24860884294 L 56.11626704307 367.24860884294 L 56.11626704307 376.25860884294 L 20.30626704307 376.25860884294 Z"/><path fill="#02aee7" transform="matrix(1.391403797787292 0 0 1.391403797787292 -20.904876839819252 36.83663487251877)" d="M 143.69910044633 294.56487490262 C 143.69910044633 300.29759060586 139.05181614957 304.94487490262 133.31910044633 304.94487490262 C 127.58638474309 304.94487490262 122.93910044633 300.29759060586 122.93910044633 294.56487490262 C 122.93910044633 288.83215919938 127.58638474309 284.18487490262 133.31910044633 284.18487490262 C 139.05181614957 284.18487490262 143.69910044633 288.83215919938 143.69910044633 294.56487490262 Z"/><path fill="#02aee7" transform="matrix(1.391403797787292 0 0 1.391403797787292 -20.904876839819252 36.83663487251877)" d="M 210.99910044633 255.46487490262 C 210.99910044633 261.19759060586 206.35181614957 265.84487490262 200.61910044633 265.84487490262 C 194.88638474309 265.84487490262 190.23910044633 261.19759060586 190.23910044633 255.46487490262 C 190.23910044633 249.73215919938 194.88638474309 245.08487490262 200.61910044633 245.08487490262 C 206.35181614957 245.08487490262 210.99910044633 249.73215919938 210.99910044633 255.46487490262 Z"/><path fill="#02aee7" transform="matrix(1.391403797787292 0 0 1.391403797787292 -20.904876839819252 36.83663487251877)" d="M 210.99910044633 410.28487490262 C 210.99910044633 416.01759060586 206.35181614957 420.66487490262 200.61910044633 420.66487490262 C 194.88638474309 420.66487490262 190.23910044633 416.01759060586 190.23910044633 410.28487490262 C 190.23910044633 404.55215919938 194.88638474309 399.90487490262 200.61910044633 399.90487490262 C 206.35181614957 399.90487490262 210.99910044633 404.55215919938 210.99910044633 410.28487490262 Z"/><path fill="#02aee7" transform="matrix(1.391403797787292 0 0 1.391403797787292 -20.904876839819252 36.83663487251877)" d="M 278.90910044633 294.56487490262 C 278.90910044633 300.29759060586 274.26181614957 304.94487490262 268.52910044633 304.94487490262 C 262.79638474309 304.94487490262 258.14910044633 300.29759060586 258.14910044633 294.56487490262 C 258.14910044633 288.83215919938 262.79638474309 284.18487490262 268.52910044633 284.18487490262 C 274.26181614957 284.18487490262 278.90910044633 288.83215919938 278.90910044633 294.56487490262 Z"/><path fill="#02aee7" transform="matrix(1.391403797787292 0 0 1.391403797787292 -20.904876839819252 36.83663487251877)" d="M 143.58910044633 372.87487490262 C 143.58910044633 378.60759060586 138.94181614957 383.25487490262 133.20910044633 383.25487490262 C 127.47638474309 383.25487490262 122.82910044633 378.60759060586 122.82910044633 372.87487490262 C 122.82910044633 367.14215919938 127.47638474309 362.49487490262 133.20910044633 362.49487490262 C 138.94181614957 362.49487490262 143.58910044633 367.14215919938 143.58910044633 372.87487490262 Z"/><path fill="#02aee7" transform="matrix(1.391403797787292 0 0 1.391403797787292 -20.904876839819252 36.83663487251877)" d="M 278.90910044633 372.98487490262 C 278.90910044633 378.71759060586 274.26181614957 383.36487490262 268.52910044633 383.36487490262 C 262.79638474309 383.36487490262 258.14910044633 378.71759060586 258.14910044633 372.98487490262 C 258.14910044633 367.25215919938 262.79638474309 362.60487490262 268.52910044633 362.60487490262 C 274.26181614957 362.60487490262 278.90910044633 367.25215919938 278.90910044633 372.98487490262 Z"/><path fill="#1f4985" transform="matrix(1.391403797787292 0 0 1.391403797787292 -20.904876839819252 36.83663487251877)" d="M 200.61910044633 381.57487490262 L 159.22910044633 357.67487490262 L 159.22910044633 309.87487490262 L 200.61910044633 285.97487490262 L 242.01910044633 309.87487490262 L 242.01910044633 357.67487490262 Z M 168.23910044633 352.47487490262 L 200.61910044633 371.17487490262 L 233.00910044633 352.47487490262 L 233.00910044633 315.07487490262 L 200.61910044633 296.42487490262 L 168.23910044633 315.12487490262 Z"/><path id="text" fill="#1f4985" transform="matrix(1.6725900132853588 0 0 1.6725900132853588 278.99552326298243 145.1433309741645)" d="M 135.37376044505 220.55060814423 C 135.37376044505 224.64435814423 134.67063544505 228.40998314423 133.26438544505 231.84748314423 C 131.85813544505 235.28498314423 129.90501044505 238.25373314423 127.40501044505 240.75373314423 C 124.90501044505 243.25373314423 121.94407294505 245.19904564423 118.52219794505 246.58967064423 C 115.10032294505 247.98029564423 111.37376044505 248.67560814423 107.34251044505 248.67560814423 L 90.84251044505 248.67560814423 C 86.81126044505 248.67560814423 83.07688544505 247.98029564423 79.63938544505 246.58967064423 C 76.20188544505 245.19904564423 73.23313544505 243.25373314423 70.73313544505 240.75373314423 C 68.23313544505 238.25373314423 66.27219794505 235.28498314423 64.85032294505 231.84748314423 C 63.42844794505 228.40998314423 62.71751044505 224.64435814423 62.71751044505 220.55060814423 L 62.71751044505 207.70685814423 C 62.71751044505 203.64435814423 63.42844794505 199.88654564423 64.85032294505 196.43342064423 C 66.27219794505 192.98029564423 68.23313544505 190.01154564423 70.73313544505 187.52717064423 C 73.23313544505 185.04279564423 76.20188544505 183.09748314423 79.63938544505 181.69123314423 C 83.07688544505 180.28498314423 86.81126044505 179.58185814423 90.84251044505 179.58185814423 L 107.34251044505 179.58185814423 C 111.37376044505 179.58185814423 115.10032294505 180.28498314423 118.52219794505 181.69123314423 C 121.94407294505 183.09748314423 124.90501044505 185.04279564423 127.40501044505 187.52717064423 C 129.90501044505 190.01154564423 131.85813544505 192.98029564423 133.26438544505 196.43342064423 C 134.67063544505 199.88654564423 135.37376044505 203.64435814423 135.37376044505 207.70685814423 L 135.37376044505 220.55060814423 Z M 123.18626044505 207.70685814423 C 123.18626044505 205.30060814423 122.80344794505 203.12092064423 122.03782294505 201.16779564423 C 121.27219794505 199.21467064423 120.19407294505 197.54279564423 118.80344794505 196.15217064423 C 117.41282294505 194.76154564423 115.74094794505 193.68342064423 113.78782294505 192.91779564423 C 111.83469794505 192.15217064423 109.68626044505 191.76935814423 107.34251044505 191.76935814423 L 90.84251044505 191.76935814423 C 88.46751044505 191.76935814423 86.30344794505 192.15217064423 84.35032294505 192.91779564423 C 82.39719794505 193.68342064423 80.71751044505 194.76154564423 79.31126044505 196.15217064423 C 77.90501044505 197.54279564423 76.81907294505 199.21467064423 76.05344794505 201.16779564423 C 75.28782294505 203.12092064423 74.90501044505 205.30060814423 74.90501044505 207.70685814423 L 74.90501044505 220.55060814423 C 74.90501044505 222.95685814423 75.28782294505 225.13654564423 76.05344794505 227.08967064423 C 76.81907294505 229.04279564423 77.90501044505 230.71467064423 79.31126044505 232.10529564423 C 80.71751044505 233.49592064423 82.39719794505 234.57404564423 84.35032294505 235.33967064423 C 86.30344794505 236.10529564423 88.46751044505 236.48810814423 90.84251044505 236.48810814423 L 107.24876044505 236.48810814423 C 109.62376044505 236.48810814423 111.78782294505 236.10529564423 113.74094794505 235.33967064423 C 115.69407294505 234.57404564423 117.37376044505 233.49592064423 118.78001044505 232.10529564423 C 120.18626044505 230.71467064423 121.27219794505 229.04279564423 122.03782294505 227.08967064423 C 122.80344794505 225.13654564423 123.18626044505 222.95685814423 123.18626044505 220.55060814423 L 123.18626044505 207.70685814423 Z M 168.32688544505 247.73810814423 L 162.88938544505 247.73810814423 C 161.13938544505 247.73810814423 159.27219794505 247.44123314423 157.28782294505 246.84748314423 C 155.30344794505 246.25373314423 153.45188544505 245.27717064423 151.73313544505 243.91779564423 C 150.01438544505 242.55842064423 148.59251044505 240.79279564423 147.46751044505 238.62092064423 C 146.34251044505 236.44904564423 145.78001044505 233.78498314423 145.78001044505 230.62873314423 L 145.78001044505 175.64435814423 L 157.96751044505 175.64435814423 L 157.96751044505 230.62873314423 C 157.96751044505 232.12873314423 158.43626044505 233.32404564423 159.37376044505 234.21467064423 C 160.31126044505 235.10529564423 161.48313544505 235.55060814423 162.88938544505 235.55060814423 L 168.32688544505 235.55060814423 L 168.32688544505 247.73810814423 Z M 188.53001044505 186.65998314423 L 176.34251044505 186.65998314423 L 176.34251044505 175.64435814423 L 188.53001044505 175.64435814423 L 188.53001044505 186.65998314423 Z M 188.53001044505 247.73810814423 L 176.34251044505 247.73810814423 L 176.34251044505 197.06623314423 L 188.53001044505 197.06623314423 L 188.53001044505 247.73810814423 Z M 260.67063544505 197.06623314423 C 259.29563544505 201.34748314423 257.68626044505 205.56623314423 255.84251044505 209.72248314423 C 253.99876044505 213.87873314423 251.88157294505 217.83967064423 249.49094794505 221.60529564423 C 247.10032294505 225.37092064423 244.42844794505 228.85529564423 241.47532294505 232.05842064423 C 238.52219794505 235.26154564423 235.25657294505 238.02717064423 231.67844794505 240.35529564423 C 228.10032294505 242.68342064423 224.20969794505 244.51154564423 220.00657294505 245.83967064423 C 215.80344794505 247.16779564423 211.24876044505 247.83185814423 206.34251044505 247.83185814423 C 205.49876044505 247.83185814423 204.70188544505 247.67560814423 203.95188544505 247.36310814423 C 203.20188544505 247.05060814423 202.54563544505 246.62092064423 201.98313544505 246.07404564423 C 201.42063544505 245.52717064423 200.98313544505 244.88654564423 200.67063544505 244.15217064423 C 200.35813544505 243.41779564423 200.20188544505 242.62873314423 200.20188544505 241.78498314423 L 200.20188544505 197.06623314423 L 212.38938544505 197.06623314423 L 212.38938544505 235.17560814423 C 215.35813544505 235.17560814423 218.20969794505 234.53498314423 220.94407294505 233.25373314423 C 223.67844794505 231.97248314423 226.26438544505 230.27717064423 228.70188544505 228.16779564423 C 231.13938544505 226.05842064423 233.39719794505 223.65998314423 235.47532294505 220.97248314423 C 237.55344794505 218.28498314423 239.40501044505 215.52717064423 241.03001044505 212.69904564423 C 242.65501044505 209.87092064423 244.03782294505 207.09748314423 245.17844794505 204.37873314423 C 246.31907294505 201.65998314423 247.17063544505 199.22248314423 247.73313544505 197.06623314423 L 260.67063544505 197.06623314423 Z M 277.40501044505 186.65998314423 L 265.21751044505 186.65998314423 L 265.21751044505 175.64435814423 L 277.40501044505 175.64435814423 L 277.40501044505 186.65998314423 Z M 277.40501044505 247.73810814423 L 265.21751044505 247.73810814423 L 265.21751044505 197.06623314423 L 277.40501044505 197.06623314423 L 277.40501044505 247.73810814423 Z M 341.38938544505 230.95685814423 C 341.38938544505 232.64435814423 341.09251044505 234.46467064423 340.49876044505 236.41779564423 C 339.90501044505 238.37092064423 338.94407294505 240.18342064423 337.61594794505 241.85529564423 C 336.28782294505 243.52717064423 334.55344794505 244.92560814423 332.41282294505 246.05060814423 C 330.27219794505 247.17560814423 327.67063544505 247.73810814423 324.60813544505 247.73810814423 L 302.62376044505 247.73810814423 C 300.93626044505 247.73810814423 299.11594794505 247.44123314423 297.16282294505 246.84748314423 C 295.20969794505 246.25373314423 293.39719794505 245.29279564423 291.72532294505 243.96467064423 C 290.05344794505 242.63654564423 288.65501044505 240.90217064423 287.53001044505 238.76154564423 C 286.40501044505 236.62092064423 285.84251044505 234.01935814423 285.84251044505 230.95685814423 C 285.84251044505 229.26935814423 286.13938544505 227.44123314423 286.73313544505 225.47248314423 C 287.32688544505 223.50373314423 288.28782294505 221.68342064423 289.61594794505 220.01154564423 C 290.94407294505 218.33967064423 292.67844794505 216.94123314423 294.81907294505 215.81623314423 C 296.95969794505 214.69123314423 299.56126044505 214.12873314423 302.62376044505 214.12873314423 L 324.60813544505 214.12873314423 L 324.60813544505 225.75373314423 L 302.62376044505 225.75373314423 C 300.96751044505 225.75373314423 299.68626044505 226.26154564423 298.78001044505 227.27717064423 C 297.87376044505 228.29279564423 297.42063544505 229.55060814423 297.42063544505 231.05060814423 C 297.42063544505 232.64435814423 297.94407294505 233.88654564423 298.99094794505 234.77717064423 C 300.03782294505 235.66779564423 301.28001044505 236.11310814423 302.71751044505 236.11310814423 L 324.60813544505 236.11310814423 C 326.26438544505 236.11310814423 327.54563544505 235.61310814423 328.45188544505 234.61310814423 C 329.35813544505 233.61310814423 329.81126044505 232.36310814423 329.81126044505 230.86310814423 L 329.81126044505 213.84748314423 C 329.81126044505 212.25373314423 329.31907294505 210.98810814423 328.33469794505 210.05060814423 C 327.35032294505 209.11310814423 326.10813544505 208.64435814423 324.60813544505 208.64435814423 L 297.84251044505 208.64435814423 L 297.84251044505 197.06623314423 L 324.60813544505 197.06623314423 C 326.29563544505 197.06623314423 328.11594794505 197.36310814423 330.06907294505 197.95685814423 C 332.02219794505 198.55060814423 333.83469794505 199.51154564423 335.50657294505 200.83967064423 C 337.17844794505 202.16779564423 338.57688544505 203.90217064423 339.70188544505 206.04279564423 C 340.82688544505 208.18342064423 341.38938544505 210.78498314423 341.38938544505 213.84748314423 L 341.38938544505 230.95685814423 Z"/></svg>